<?xml version="1.0" encoding="UTF-8" standalone="no"?>
<svg
   width="200"
   height="200"
   viewBox="0 0 200 200"
   fill="none"
   version="1.1"
   id="svg33842"
   sodipodi:docname="crosshair.svg"
   inkscape:version="1.2.1 (9c6d41e410, 2022-07-14, custom)"
   xmlns:inkscape="http://www.inkscape.org/namespaces/inkscape"
   xmlns:sodipodi="http://sodipodi.sourceforge.net/DTD/sodipodi-0.dtd"
   xmlns="http://www.w3.org/2000/svg"
   xmlns:svg="http://www.w3.org/2000/svg">
  <sodipodi:namedview
     id="namedview33844"
     pagecolor="#505050"
     bordercolor="#eeeeee"
     borderopacity="1"
     inkscape:showpageshadow="0"
     inkscape:pageopacity="0"
     inkscape:pagecheckerboard="0"
     inkscape:deskcolor="#505050"
     showgrid="false"
     inkscape:zoom="4.355"
     inkscape:cx="98.737084"
     inkscape:cy="100.11481"
     inkscape:window-width="934"
     inkscape:window-height="1011"
     inkscape:window-x="0"
     inkscape:window-y="0"
     inkscape:window-maximized="1"
     inkscape:current-layer="svg33842" />
  <g
     filter="url(#filter0_d_65_286)"
     id="g33796">
    <path
       fill-rule="evenodd"
       clip-rule="evenodd"
       d="M85 25C85 16.7157 91.7157 10 100 10C108.284 10 115 16.7157 115 25V81.25C115 82.7841 114.77 84.2644 114.342 85.6582C115.736 85.2303 117.216 85 118.75 85H175C183.284 85 190 91.7157 190 100C190 108.284 183.284 115 175 115H118.75C117.216 115 115.736 114.77 114.342 114.342C114.77 115.736 115 117.216 115 118.75V175C115 183.284 108.284 190 100 190C91.7157 190 85 183.284 85 175V118.75C85 117.216 85.2303 115.736 85.6582 114.342C84.2644 114.77 82.7841 115 81.25 115H25C16.7157 115 10 108.284 10 100C10 91.7157 16.7157 85 25 85H81.25C82.7841 85 84.2644 85.2303 85.6582 85.6582C85.2303 84.2644 85 82.7841 85 81.25V25ZM100 115C108.837 115 116 107.837 116 99C116 90.1634 108.837 83 100 83C91.1634 83 84 90.1634 84 99C84 107.837 91.1634 115 100 115Z"
       fill="#0000FF"
       id="path33794" />
  </g>
  <path
     d="M25 92.5C20.8579 92.5 17.5 95.8579 17.5 100C17.5 104.142 20.8579 107.5 25 107.5H81.25C82.8922 107.5 84.411 106.972 85.6463 106.077C84.5923 103.943 84 101.541 84 99C84 97.0633 84.3441 95.2069 84.9745 93.4887C83.8772 92.8596 82.6056 92.5 81.25 92.5H25Z"
     fill="#00FF00"
     id="path33798" />
  <path
     d="M93.2367 84.4955C92.7645 83.5134 92.5 82.4126 92.5 81.25V25C92.5 20.8579 95.8579 17.5 100 17.5C104.142 17.5 107.5 20.8579 107.5 25V81.25C107.5 82.4126 107.235 83.5134 106.763 84.4955C104.709 83.536 102.417 83 100 83C97.5829 83 95.291 83.536 93.2367 84.4955Z"
     fill="#00FF00"
     id="path33800" />
  <path
     d="M115.025 93.4887C116.123 92.8596 117.394 92.5 118.75 92.5H175C179.142 92.5 182.5 95.8579 182.5 100C182.5 104.142 179.142 107.5 175 107.5H118.75C117.108 107.5 115.589 106.972 114.354 106.077C115.408 103.943 116 101.541 116 99C116 97.0633 115.656 95.2069 115.025 93.4887Z"
     fill="#00FF00"
     id="path33802" />
  <path
     d="M105.751 113.935C106.843 115.238 107.5 116.917 107.5 118.75V175C107.5 179.142 104.142 182.5 100 182.5C95.8579 182.5 92.5 179.142 92.5 175V118.75C92.5 116.917 93.1574 115.238 94.2492 113.935C96.0339 114.623 97.9729 115 100 115C102.027 115 103.966 114.623 105.751 113.935Z"
     fill="#00FF00"
     id="path33804" />
  <g
     filter="url(#filter1_d_65_286)"
     id="g33808">
    <circle
       cx="100"
       cy="100"
       r="4"
       fill="#FE0101"
       id="circle33806"
       style="fill:#f1739a;fill-opacity:1" />
  </g>
  <defs
     id="defs33840">
    <filter
       id="filter0_d_65_286"
       x="5"
       y="9"
       width="190"
       height="190"
       filterUnits="userSpaceOnUse"
       color-interpolation-filters="sRGB">
      <feFlood
         flood-opacity="0"
         result="BackgroundImageFix"
         id="feFlood33810" />
      <feColorMatrix
         in="SourceAlpha"
         type="matrix"
         values="0 0 0 0 0 0 0 0 0 0 0 0 0 0 0 0 0 0 127 0"
         result="hardAlpha"
         id="feColorMatrix33812" />
      <feOffset
         dy="4"
         id="feOffset33814" />
      <feGaussianBlur
         stdDeviation="2.5"
         id="feGaussianBlur33816" />
      <feColorMatrix
         type="matrix"
         values="0 0 0 0 0 0 0 0 0 0 0 0 0 0 0 0 0 0 0.5 0"
         id="feColorMatrix33818" />
      <feBlend
         mode="normal"
         in2="BackgroundImageFix"
         result="effect1_dropShadow_65_286"
         id="feBlend33820" />
      <feBlend
         mode="normal"
         in="SourceGraphic"
         in2="effect1_dropShadow_65_286"
         result="shape"
         id="feBlend33822" />
    </filter>
    <filter
       id="filter1_d_65_286"
       x="91"
       y="95"
       width="18"
       height="18"
       filterUnits="userSpaceOnUse"
       color-interpolation-filters="sRGB">
      <feFlood
         flood-opacity="0"
         result="BackgroundImageFix"
         id="feFlood33825" />
      <feColorMatrix
         in="SourceAlpha"
         type="matrix"
         values="0 0 0 0 0 0 0 0 0 0 0 0 0 0 0 0 0 0 127 0"
         result="hardAlpha"
         id="feColorMatrix33827" />
      <feOffset
         dy="4"
         id="feOffset33829" />
      <feGaussianBlur
         stdDeviation="2.5"
         id="feGaussianBlur33831" />
      <feColorMatrix
         type="matrix"
         values="0 0 0 0 0 0 0 0 0 0 0 0 0 0 0 0 0 0 0.5 0"
         id="feColorMatrix33833" />
      <feBlend
         mode="normal"
         in2="BackgroundImageFix"
         result="effect1_dropShadow_65_286"
         id="feBlend33835" />
      <feBlend
         mode="normal"
         in="SourceGraphic"
         in2="effect1_dropShadow_65_286"
         result="shape"
         id="feBlend33837" />
    </filter>
  </defs>
</svg>
